<?xml version="1.0" standalone="no"?>
<!DOCTYPE svg PUBLIC "-//W3C//DTD SVG 20010904//EN"
 "http://www.w3.org/TR/2001/REC-SVG-20010904/DTD/svg10.dtd">
<svg version="1.0" xmlns="http://www.w3.org/2000/svg"
 width="75.000000pt" height="75.000000pt" viewBox="0 0 75.000000 75.000000"
 preserveAspectRatio="xMidYMid meet">
<metadata>
Created by potrace 1.14, written by Peter Selinger 2001-2017
</metadata>
<g transform="translate(0.000000,75.000000) scale(0.100000,-0.100000)"
fill="#000000" stroke="none">
<path d="M300 625 l0 -75 -75 0 c-73 0 -75 -1 -75 -25 0 -23 3 -25 50 -25 l50
0 0 -50 c0 -47 -2 -50 -25 -50 -20 0 -25 -5 -25 -25 0 -20 -5 -25 -25 -25 -20
0 -25 -5 -25 -25 0 -20 -5 -25 -25 -25 -20 0 -25 -5 -25 -25 0 -20 -5 -25 -25
-25 -23 0 -25 -3 -25 -50 0 -47 2 -50 25 -50 20 0 25 5 25 25 0 23 3 25 50 25
47 0 50 2 50 25 l0 25 125 0 125 0 0 -25 c0 -20 -5 -25 -25 -25 -20 0 -25 -5
-25 -25 0 -20 -5 -25 -25 -25 -24 0 -25 -2 -25 -75 l0 -75 200 0 200 0 0 125
0 125 -25 0 c-20 0 -25 5 -25 25 0 20 -5 25 -25 25 -24 0 -25 2 -25 75 l0 75
50 0 50 0 0 100 0 100 -50 0 c-47 0 -50 2 -50 25 l0 25 -175 0 -175 0 0 -75z"/>
</g>
</svg>
